{
	"asset":{
		"generator":"Khronos glTF Blender I/O v4.3.47",
		"version":"2.0"
	},
	"scene":0,
	"scenes":[
		{
			"name":"Scene",
			"nodes":[
				0,
				1,
				2
			]
		}
	],
	"nodes":[
		{
			"mesh":0,
			"name":"Plane",
			"rotation":[
				-0.00464375875890255,
				0,
				0,
				0.9999892115592957
			],
			"scale":[
				1,
				1.1858950853347778,
				1.1858950853347778
			],
			"translation":[
				0,
				0.10141909122467041,
				0.004801128059625626
			]
		},
		{
			"mesh":1,
			"name":"Plane.002",
			"rotation":[
				-0.007627589162439108,
				0,
				0,
				0.9999709129333496
			],
			"scale":[
				0.16203618049621582,
				0.16203618049621582,
				0.16203618049621582
			],
			"translation":[
				0.3142189681529999,
				0.30453765392303467,
				1.0773601531982422
			]
		},
		{
			"mesh":2,
			"name":"Plane.001",
			"rotation":[
				-0.00464375875890255,
				0,
				0,
				0.9999892115592957
			],
			"scale":[
				1,
				1.1858950853347778,
				1.1858950853347778
			],
			"translation":[
				0,
				0.10776223987340927,
				0.004801128059625626
			]
		}
	],
	"materials":[
		{
			"doubleSided":true,
			"name":"Material.001",
			"pbrMetallicRoughness":{
				"baseColorTexture":{
					"index":0
				},
				"metallicFactor":0,
				"roughnessFactor":0.5
			}
		},
		{
			"alphaMode":"BLEND",
			"doubleSided":true,
			"name":"Material.004",
			"pbrMetallicRoughness":{
				"baseColorTexture":{
					"index":1
				},
				"metallicFactor":0,
				"roughnessFactor":0.5
			}
		},
		{
			"alphaMode":"BLEND",
			"doubleSided":true,
			"name":"Material.005",
			"pbrMetallicRoughness":{
				"baseColorTexture":{
					"index":2
				},
				"metallicFactor":0,
				"roughnessFactor":0.5
			}
		}
	],
	"meshes":[
		{
			"name":"Plane",
			"primitives":[
				{
					"attributes":{
						"POSITION":0,
						"NORMAL":1,
						"TEXCOORD_0":2
					},
					"indices":3,
					"material":0
				}
			]
		},
		{
			"name":"Plane.002",
			"primitives":[
				{
					"attributes":{
						"POSITION":4,
						"NORMAL":5,
						"TEXCOORD_0":6
					},
					"indices":7,
					"material":1
				}
			]
		},
		{
			"name":"Plane.003",
			"primitives":[
				{
					"attributes":{
						"POSITION":8,
						"NORMAL":9,
						"TEXCOORD_0":10
					},
					"indices":3,
					"material":2
				}
			]
		}
	],
	"textures":[
		{
			"sampler":0,
			"source":0
		},
		{
			"sampler":0,
			"source":1
		},
		{
			"sampler":0,
			"source":2
		}
	],
	"images":[
		{
			"mimeType":"image/jpeg",
			"name":"parchmenttexture",
			"uri":"parchmenttexture.jpg"
		},
		{
			"mimeType":"image/png",
			"name":"targetimgchowpuff",
			"uri":"targetimgchowpuff.png"
		},
		{
			"mimeType":"image/png",
			"name":"lettershadingtest2",
			"uri":"lettershadingtest2.png"
		}
	],
	"accessors":[
		{
			"bufferView":0,
			"componentType":5126,
			"count":1024,
			"max":[
				1.0071802139282227,
				0.15836983919143677,
				1.0123411417007446
			],
			"min":[
				-1.0115985870361328,
				0.004905058536678553,
				-1.0061122179031372
			],
			"type":"VEC3"
		},
		{
			"bufferView":1,
			"componentType":5126,
			"count":1024,
			"type":"VEC3"
		},
		{
			"bufferView":2,
			"componentType":5126,
			"count":1024,
			"type":"VEC2"
		},
		{
			"bufferView":3,
			"componentType":5123,
			"count":1536,
			"type":"SCALAR"
		},
		{
			"bufferView":4,
			"componentType":5126,
			"count":4,
			"max":[
				1,
				0,
				1
			],
			"min":[
				-1,
				0,
				-1
			],
			"type":"VEC3"
		},
		{
			"bufferView":5,
			"componentType":5126,
			"count":4,
			"type":"VEC3"
		},
		{
			"bufferView":6,
			"componentType":5126,
			"count":4,
			"type":"VEC2"
		},
		{
			"bufferView":7,
			"componentType":5123,
			"count":6,
			"type":"SCALAR"
		},
		{
			"bufferView":8,
			"componentType":5126,
			"count":1024,
			"max":[
				1.0071802139282227,
				0.15836983919143677,
				1.0123411417007446
			],
			"min":[
				-1.0115985870361328,
				0.004905058536678553,
				-1.0061122179031372
			],
			"type":"VEC3"
		},
		{
			"bufferView":9,
			"componentType":5126,
			"count":1024,
			"type":"VEC3"
		},
		{
			"bufferView":10,
			"componentType":5126,
			"count":1024,
			"type":"VEC2"
		}
	],
	"bufferViews":[
		{
			"buffer":0,
			"byteLength":12288,
			"byteOffset":0,
			"target":34962
		},
		{
			"buffer":0,
			"byteLength":12288,
			"byteOffset":12288,
			"target":34962
		},
		{
			"buffer":0,
			"byteLength":8192,
			"byteOffset":24576,
			"target":34962
		},
		{
			"buffer":0,
			"byteLength":3072,
			"byteOffset":32768,
			"target":34963
		},
		{
			"buffer":0,
			"byteLength":48,
			"byteOffset":35840,
			"target":34962
		},
		{
			"buffer":0,
			"byteLength":48,
			"byteOffset":35888,
			"target":34962
		},
		{
			"buffer":0,
			"byteLength":32,
			"byteOffset":35936,
			"target":34962
		},
		{
			"buffer":0,
			"byteLength":12,
			"byteOffset":35968,
			"target":34963
		},
		{
			"buffer":0,
			"byteLength":12288,
			"byteOffset":35980,
			"target":34962
		},
		{
			"buffer":0,
			"byteLength":12288,
			"byteOffset":48268,
			"target":34962
		},
		{
			"buffer":0,
			"byteLength":8192,
			"byteOffset":60556,
			"target":34962
		}
	],
	"samplers":[
		{
			"magFilter":9729,
			"minFilter":9987
		}
	],
	"buffers":[
		{
			"byteLength":68748,
			"uri":"testparchment.bin"
		}
	]
}
