{
	"asset":{
		"generator":"Khronos glTF Blender I/O v4.3.47",
		"version":"2.0"
	},
	"scene":0,
	"scenes":[
		{
			"name":"Scene",
			"nodes":[
				0,
				1,
				2
			]
		}
	],
	"nodes":[
		{
			"mesh":0,
			"name":"Plane",
			"rotation":[
				0.41840508580207825,
				0,
				0,
				0.9082606434822083
			],
			"scale":[
				1,
				1.1858950853347778,
				1.1858950853347778
			],
			"translation":[
				0,
				1.2070740461349487,
				0
			]
		},
		{
			"mesh":1,
			"name":"Plane.001",
			"rotation":[
				0.41840508580207825,
				0,
				0,
				0.9082606434822083
			],
			"scale":[
				1,
				1.1858950853347778,
				1.1858950853347778
			],
			"translation":[
				0,
				1.219609022140503,
				0
			]
		},
		{
			"mesh":2,
			"name":"Plane.002",
			"rotation":[
				0.4114808738231659,
				0,
				0,
				0.9114184975624084
			],
			"scale":[
				0.16203618049621582,
				0.16203619539737701,
				0.16203619539737701
			],
			"translation":[
				0.3142189681529999,
				1.0645725727081299,
				1.2353293895721436
			]
		}
	],
	"materials":[
		{
			"doubleSided":true,
			"name":"Material.001",
			"pbrMetallicRoughness":{
				"baseColorTexture":{
					"index":0
				},
				"metallicFactor":0,
				"roughnessFactor":0.5
			}
		},
		{
			"alphaMode":"BLEND",
			"doubleSided":true,
			"name":"Material.003",
			"pbrMetallicRoughness":{
				"baseColorTexture":{
					"index":1
				},
				"metallicFactor":0,
				"roughnessFactor":0.5
			}
		},
		{
			"alphaMode":"BLEND",
			"doubleSided":true,
			"name":"Material.004",
			"pbrMetallicRoughness":{
				"baseColorTexture":{
					"index":2
				},
				"metallicFactor":0,
				"roughnessFactor":0.5
			}
		}
	],
	"meshes":[
		{
			"name":"Plane",
			"primitives":[
				{
					"attributes":{
						"POSITION":0,
						"NORMAL":1,
						"TEXCOORD_0":2
					},
					"indices":3,
					"material":0
				}
			]
		},
		{
			"name":"Plane.001",
			"primitives":[
				{
					"attributes":{
						"POSITION":4,
						"NORMAL":5,
						"TEXCOORD_0":6
					},
					"indices":3,
					"material":1
				}
			]
		},
		{
			"name":"Plane.002",
			"primitives":[
				{
					"attributes":{
						"POSITION":7,
						"NORMAL":8,
						"TEXCOORD_0":9
					},
					"indices":10,
					"material":2
				}
			]
		}
	],
	"textures":[
		{
			"sampler":0,
			"source":0
		},
		{
			"sampler":0,
			"source":1
		},
		{
			"sampler":0,
			"source":2
		}
	],
	"images":[
		{
			"mimeType":"image/jpeg",
			"name":"parchmenttexture",
			"uri":"parchmenttexture.jpg"
		},
		{
			"mimeType":"image/png",
			"name":"lettershadingtest2",
			"uri":"lettershadingtest2.png"
		},
		{
			"mimeType":"image/png",
			"name":"targetimgchowpuff",
			"uri":"targetimgchowpuff.png"
		}
	],
	"accessors":[
		{
			"bufferView":0,
			"componentType":5126,
			"count":289,
			"max":[
				1,
				1.7078589209518213e-08,
				1
			],
			"min":[
				-1,
				-5.192878660409406e-08,
				-1
			],
			"type":"VEC3"
		},
		{
			"bufferView":1,
			"componentType":5126,
			"count":289,
			"type":"VEC3"
		},
		{
			"bufferView":2,
			"componentType":5126,
			"count":289,
			"type":"VEC2"
		},
		{
			"bufferView":3,
			"componentType":5123,
			"count":1536,
			"type":"SCALAR"
		},
		{
			"bufferView":4,
			"componentType":5126,
			"count":289,
			"max":[
				1,
				1.7078589209518213e-08,
				1
			],
			"min":[
				-1,
				-5.192878660409406e-08,
				-1
			],
			"type":"VEC3"
		},
		{
			"bufferView":5,
			"componentType":5126,
			"count":289,
			"type":"VEC3"
		},
		{
			"bufferView":6,
			"componentType":5126,
			"count":289,
			"type":"VEC2"
		},
		{
			"bufferView":7,
			"componentType":5126,
			"count":4,
			"max":[
				1,
				0,
				1
			],
			"min":[
				-1,
				0,
				-1
			],
			"type":"VEC3"
		},
		{
			"bufferView":8,
			"componentType":5126,
			"count":4,
			"type":"VEC3"
		},
		{
			"bufferView":9,
			"componentType":5126,
			"count":4,
			"type":"VEC2"
		},
		{
			"bufferView":10,
			"componentType":5123,
			"count":6,
			"type":"SCALAR"
		}
	],
	"bufferViews":[
		{
			"buffer":0,
			"byteLength":3468,
			"byteOffset":0,
			"target":34962
		},
		{
			"buffer":0,
			"byteLength":3468,
			"byteOffset":3468,
			"target":34962
		},
		{
			"buffer":0,
			"byteLength":2312,
			"byteOffset":6936,
			"target":34962
		},
		{
			"buffer":0,
			"byteLength":3072,
			"byteOffset":9248,
			"target":34963
		},
		{
			"buffer":0,
			"byteLength":3468,
			"byteOffset":12320,
			"target":34962
		},
		{
			"buffer":0,
			"byteLength":3468,
			"byteOffset":15788,
			"target":34962
		},
		{
			"buffer":0,
			"byteLength":2312,
			"byteOffset":19256,
			"target":34962
		},
		{
			"buffer":0,
			"byteLength":48,
			"byteOffset":21568,
			"target":34962
		},
		{
			"buffer":0,
			"byteLength":48,
			"byteOffset":21616,
			"target":34962
		},
		{
			"buffer":0,
			"byteLength":32,
			"byteOffset":21664,
			"target":34962
		},
		{
			"buffer":0,
			"byteLength":12,
			"byteOffset":21696,
			"target":34963
		}
	],
	"samplers":[
		{
			"magFilter":9729,
			"minFilter":9987
		}
	],
	"buffers":[
		{
			"byteLength":21708,
			"uri":"testparchment.bin"
		}
	]
}
