{
	"asset":{
		"generator":"Khronos glTF Blender I/O v4.3.47",
		"version":"2.0"
	},
	"scene":0,
	"scenes":[
		{
			"name":"Scene",
			"nodes":[
				0,
				1,
				2
			]
		}
	],
	"nodes":[
		{
			"mesh":0,
			"name":"Plane",
			"scale":[
				1,
				1.1858950853347778,
				1.1858950853347778
			],
			"translation":[
				0,
				-0.01792953535914421,
				0
			]
		},
		{
			"mesh":1,
			"name":"Plane.002",
			"scale":[
				1.3470964431762695,
				1.1649314165115356,
				1.8769757747650146
			],
			"translation":[
				0,
				0.26498153805732727,
				0
			]
		},
		{
			"mesh":2,
			"name":"Plane.001",
			"scale":[
				1,
				1.1858950853347778,
				1.1858950853347778
			],
			"translation":[
				0,
				-0.004532868042588234,
				0
			]
		}
	],
	"materials":[
		{
			"alphaMode":"BLEND",
			"doubleSided":true,
			"name":"Material.001",
			"pbrMetallicRoughness":{
				"baseColorTexture":{
					"index":0
				},
				"metallicFactor":0,
				"roughnessFactor":0.5
			}
		},
		{
			"alphaMode":"BLEND",
			"doubleSided":true,
			"name":"Material.004",
			"pbrMetallicRoughness":{
				"baseColorTexture":{
					"index":1
				},
				"metallicFactor":0,
				"roughnessFactor":0.5
			}
		},
		{
			"doubleSided":true,
			"name":"Material.006",
			"pbrMetallicRoughness":{
				"baseColorFactor":[
					0.800000011920929,
					0.800000011920929,
					0.800000011920929,
					1
				],
				"metallicFactor":0,
				"roughnessFactor":0.5
			}
		}
	],
	"meshes":[
		{
			"name":"Plane",
			"primitives":[
				{
					"attributes":{
						"POSITION":0,
						"NORMAL":1,
						"TEXCOORD_0":2
					},
					"indices":3,
					"material":0
				}
			]
		},
		{
			"name":"Plane.002",
			"primitives":[
				{
					"attributes":{
						"POSITION":4,
						"NORMAL":5,
						"TEXCOORD_0":6
					},
					"indices":7,
					"material":1
				}
			]
		},
		{
			"name":"Plane.003",
			"primitives":[
				{
					"attributes":{
						"POSITION":8,
						"NORMAL":9,
						"TEXCOORD_0":10
					},
					"indices":3,
					"material":2
				}
			]
		}
	],
	"textures":[
		{
			"sampler":0,
			"source":0
		},
		{
			"sampler":1,
			"source":1
		}
	],
	"images":[
		{
			"mimeType":"image/png",
			"name":"parchmenttexture",
			"uri":"parchmenttexture.png"
		},
		{
			"mimeType":"image/png",
			"name":"RoseFormatted",
			"uri":"RoseFormatted.png"
		}
	],
	"accessors":[
		{
			"bufferView":0,
			"componentType":5126,
			"count":1024,
			"max":[
				1.0045201778411865,
				0.09958315640687943,
				1.003563404083252
			],
			"min":[
				-1.0038903951644897,
				0.003271504770964384,
				-1.0039844512939453
			],
			"type":"VEC3"
		},
		{
			"bufferView":1,
			"componentType":5126,
			"count":1024,
			"type":"VEC3"
		},
		{
			"bufferView":2,
			"componentType":5126,
			"count":1024,
			"type":"VEC2"
		},
		{
			"bufferView":3,
			"componentType":5123,
			"count":1536,
			"type":"SCALAR"
		},
		{
			"bufferView":4,
			"componentType":5126,
			"count":4,
			"max":[
				1,
				0,
				1
			],
			"min":[
				-1,
				0,
				-1
			],
			"type":"VEC3"
		},
		{
			"bufferView":5,
			"componentType":5126,
			"count":4,
			"type":"VEC3"
		},
		{
			"bufferView":6,
			"componentType":5126,
			"count":4,
			"type":"VEC2"
		},
		{
			"bufferView":7,
			"componentType":5123,
			"count":6,
			"type":"SCALAR"
		},
		{
			"bufferView":8,
			"componentType":5126,
			"count":1024,
			"max":[
				1.0045201778411865,
				0.09958315640687943,
				1.003563404083252
			],
			"min":[
				-1.0038903951644897,
				0.003271504770964384,
				-1.0039844512939453
			],
			"type":"VEC3"
		},
		{
			"bufferView":9,
			"componentType":5126,
			"count":1024,
			"type":"VEC3"
		},
		{
			"bufferView":10,
			"componentType":5126,
			"count":1024,
			"type":"VEC2"
		}
	],
	"bufferViews":[
		{
			"buffer":0,
			"byteLength":12288,
			"byteOffset":0,
			"target":34962
		},
		{
			"buffer":0,
			"byteLength":12288,
			"byteOffset":12288,
			"target":34962
		},
		{
			"buffer":0,
			"byteLength":8192,
			"byteOffset":24576,
			"target":34962
		},
		{
			"buffer":0,
			"byteLength":3072,
			"byteOffset":32768,
			"target":34963
		},
		{
			"buffer":0,
			"byteLength":48,
			"byteOffset":35840,
			"target":34962
		},
		{
			"buffer":0,
			"byteLength":48,
			"byteOffset":35888,
			"target":34962
		},
		{
			"buffer":0,
			"byteLength":32,
			"byteOffset":35936,
			"target":34962
		},
		{
			"buffer":0,
			"byteLength":12,
			"byteOffset":35968,
			"target":34963
		},
		{
			"buffer":0,
			"byteLength":12288,
			"byteOffset":35980,
			"target":34962
		},
		{
			"buffer":0,
			"byteLength":12288,
			"byteOffset":48268,
			"target":34962
		},
		{
			"buffer":0,
			"byteLength":8192,
			"byteOffset":60556,
			"target":34962
		}
	],
	"samplers":[
		{
			"magFilter":9729,
			"minFilter":9987,
			"wrapS":33071,
			"wrapT":33071
		},
		{
			"magFilter":9729,
			"minFilter":9987
		}
	],
	"buffers":[
		{
			"byteLength":68748,
			"uri":"testrose.bin"
		}
	]
}
