{
    "asset" : {
        "generator" : "Khronos glTF Blender I/O v3.4.50",
        "version" : "2.0"
    },
    "scene" : 0,
    "scenes" : [
        {
            "name" : "Scene",
            "nodes" : [
                0
            ]
        }
    ],
    "nodes" : [
        {
            "name" : "Stroke"
        }
    ],
    "animations" : [
        {
            "channels" : [
                {
                    "sampler" : 0,
                    "target" : {
                        "node" : 0,
                        "path" : "translation"
                    }
                },
                {
                    "sampler" : 1,
                    "target" : {
                        "node" : 0,
                        "path" : "rotation"
                    }
                },
                {
                    "sampler" : 2,
                    "target" : {
                        "node" : 0,
                        "path" : "scale"
                    }
                }
            ],
            "name" : "Action",
            "samplers" : [
                {
                    "input" : 0,
                    "interpolation" : "LINEAR",
                    "output" : 1
                },
                {
                    "input" : 0,
                    "interpolation" : "LINEAR",
                    "output" : 2
                },
                {
                    "input" : 0,
                    "interpolation" : "LINEAR",
                    "output" : 3
                }
            ]
        }
    ],
    "accessors" : [
        {
            "bufferView" : 0,
            "componentType" : 5126,
            "count" : 70,
            "max" : [
                2.9166666666666665
            ],
            "min" : [
                0.041666666666666664
            ],
            "type" : "SCALAR"
        },
        {
            "bufferView" : 1,
            "componentType" : 5126,
            "count" : 70,
            "type" : "VEC3"
        },
        {
            "bufferView" : 2,
            "componentType" : 5126,
            "count" : 70,
            "type" : "VEC4"
        },
        {
            "bufferView" : 3,
            "componentType" : 5126,
            "count" : 70,
            "type" : "VEC3"
        }
    ],
    "bufferViews" : [
        {
            "buffer" : 0,
            "byteLength" : 280,
            "byteOffset" : 0
        },
        {
            "buffer" : 0,
            "byteLength" : 840,
            "byteOffset" : 280
        },
        {
            "buffer" : 0,
            "byteLength" : 1120,
            "byteOffset" : 1120
        },
        {
            "buffer" : 0,
            "byteLength" : 840,
            "byteOffset" : 2240
        }
    ],
    "buffers" : [
        {
            "byteLength" : 3080,
            "uri" : "data:application/octet-stream;base64,"
        }
    ]
}
